# File created by Blade
# Date/Time:  Thu Jan 15 17:55:17 2015
#---------------------------------------------------------
:version 1.10
:name HOM
:units
  mass 1.0
  length 1.000000
  angle deg
:documentation
     Acclaim Skeleton File
:root
   axis xyz
   order TX TY TZ RX RY RZ
   position 0.000000 0.000000 0.000000
   orientation 0 0 0
:bonedata
   begin
      id 1
      name Spine_dum
      direction 0.000000 1.000000 0.000000
      length 5.015652
      axis 0.0 0.0 0.0 xyz
   end
   begin
      id 2
      name LeftUpLeg_dum
      direction 1.000000 0.000000 0.000000
      length 4.275145
      axis 0.0 0.0 0.0 xyz
   end
   begin
      id 3
      name RightUpLeg_dum
      direction -1.000000 0.000000 0.000000
      length 4.275145
      axis 0.0 0.0 0.0 xyz
   end
   begin
      id 4
      name Spine
      direction 0.000000 1.000000 0.000000
      length 0.000000
      axis 0.0 0.0 0.0 xyz
      dof rx ry rz
   end
   begin
      id 5
      name Spine_dum1
      direction 0.000000 1.000000 0.000000
      length 15.980521
      axis 0.0 0.0 0.0 xyz
   end
   begin
      id 6
      name Spine_dum2
      direction 0.000000 1.000000 0.000000
      length 12.162712
      axis 0.0 0.0 0.0 xyz
   end
   begin
      id 7
      name Spine_dum3
      direction 0.000000 1.000000 0.000000
      length 12.162712
      axis 0.0 0.0 0.0 xyz
   end
   begin
      id 8
      name Head
      direction 0.000000 1.000000 0.000000
      length 4.527550
      axis 0.0 0.0 0.0 xyz
      dof rx ry rz
   end
   begin
      id 9
      name LeftShoulder
      direction 1.000000 0.000000 0.000000
      length 7.205867
      axis 0.0 0.0 -90.0 xyz
      dof rx ry rz
   end
   begin
      id 10
      name LeftArm
      direction 1.000000 0.000000 0.000000
      length 10.786708
      axis 0.0 0.0 -90.0 xyz
      dof rx ry rz
   end
   begin
      id 11
      name LeftForeArm
      direction 1.000000 0.000000 0.000000
      length 7.946034
      axis 0.0 0.0 -90.0 xyz
      dof rz ry rx
   end
   begin
      id 12
      name LeftHand
      direction 0.000000 0.000000 0.000000
      length 0.000000
      axis 0.0 0.0 -90.0 xyz
      dof rx ry rz
   end
   begin
      id 13
      name LeftHand_dum1
      direction 0.000000 0.000000 0.000000
      length 0.000000
      axis 0.0 0.0 -90.0 xyz
   end
   begin
      id 14
      name LeftHand_dum2
      direction 1.000000 0.000000 0.000000
      length 3.937000
      axis 0.0 0.0 -90.0 xyz
   end
   begin
      id 15
      name LeftHandThumb1
      direction 0.000000 0.000000 1.000000
      length 3.937000
      axis 0.0 0.0 -90.0 xyz
      dof rx ry rz
   end
   begin
      id 16
      name RightShoulder
      direction -1.000000 0.000000 0.000000
      length 7.205867
      axis 0.0 0.0 90.0 xyz
      dof rx ry rz
   end
   begin
      id 17
      name RightArm
      direction -1.000000 0.000000 0.000000
      length 10.786708
      axis 0.0 0.0 90.0 xyz
      dof rx ry rz
   end
   begin
      id 18
      name RightForeArm
      direction -1.000000 0.000000 0.000000
      length 7.946034
      axis 0.0 0.0 90.0 xyz
      dof rz ry rx
   end
   begin
      id 19
      name RightHand
      direction 0.000000 0.000000 0.000000
      length 0.000000
      axis 0.0 0.0 90.0 xyz
      dof rx ry rz
   end
   begin
      id 20
      name RightHand_dum1
      direction 0.000000 0.000000 0.000000
      length 0.000000
      axis 0.0 0.0 90.0 xyz
   end
   begin
      id 21
      name RightHand_dum2
      direction -1.000000 0.000000 0.000000
      length 3.937000
      axis 0.0 0.0 90.0 xyz
   end
   begin
      id 22
      name RightHandThumb1
      direction 0.000000 0.000000 1.000000
      length 3.937000
      axis 0.0 0.0 90.0 xyz
      dof rx ry rz
   end
   begin
      id 23
      name LeftUpLeg
      direction 0.000000 -1.000000 0.000000
      length 17.046659
      axis 0.0 0.0 0.0 xyz
      dof rx ry rz
   end
   begin
      id 24
      name LeftLeg
      direction 0.000000 -1.000000 0.000000
      length 17.458438
      axis 0.0 0.0 0.0 xyz
      dof rx ry rz
   end
   begin
      id 25
      name LeftFoot
      direction 0.000000 -0.258819 0.965926
      length 5.099406
      axis 15.0 0.0 0.0 xyz
      dof rx ry rz
   end
   begin
      id 26
      name LeftToeBase
      direction 0.000000 0.000000 1.000000
      length 2.952750
      axis 0.0 0.0 0.0 xyz
      dof rx ry rz
   end
   begin
      id 27
      name RightUpLeg
      direction 0.000000 -1.000000 0.000000
      length 17.046659
      axis 0.0 0.0 0.0 xyz
      dof rx ry rz
   end
   begin
      id 28
      name RightLeg
      direction 0.000000 -1.000000 0.000000
      length 17.458438
      axis 0.0 0.0 0.0 xyz
      dof rx ry rz
   end
   begin
      id 29
      name RightFoot
      direction 0.000000 -0.258819 0.965926
      length 5.099406
      axis 15.0 0.0 0.0 xyz
      dof rx ry rz
   end
   begin
      id 30
      name RightToeBase
      direction 0.000000 0.000000 1.000000
      length 2.952750
      axis 0.0 0.0 0.0 xyz
      dof rx ry rz
   end
:hierarchy
   begin
      root Spine_dum LeftUpLeg_dum RightUpLeg_dum
      Spine_dum Spine
      LeftUpLeg_dum LeftUpLeg
      RightUpLeg_dum RightUpLeg
      Spine Spine_dum1 Spine_dum2 Spine_dum3
      Spine_dum1 Head
      Spine_dum2 LeftShoulder
      Spine_dum3 RightShoulder
      LeftShoulder LeftArm
      LeftArm LeftForeArm
      LeftForeArm LeftHand
      LeftHand LeftHand_dum1 LeftHand_dum2
      LeftHand_dum1 LeftHandThumb1
      RightShoulder RightArm
      RightArm RightForeArm
      RightForeArm RightHand
      RightHand RightHand_dum1 RightHand_dum2
      RightHand_dum1 RightHandThumb1
      LeftUpLeg LeftLeg
      LeftLeg LeftFoot
      LeftFoot LeftToeBase
      RightUpLeg RightLeg
      RightLeg RightFoot
      RightFoot RightToeBase
   end

# File created by Blade
# Date/Time:  Thu Jan 15 17:55:09 2015
# Frame Rate: 120.000 fps
#------------------------------------------------------
:FULLY-SPECIFIED
:DEGREES
1618
root 5.582330 35.545287 -9.177755 4.922706 -1.806708 1.294196
Spine -9.348334 -13.852552 -2.590333
Head 3.478335 10.969549 15.922690
LeftShoulder -32.863635 1.320526 14.930511
LeftArm 19.163810 -44.271991 -19.556587
LeftForeArm -0.000000 25.353026 -4.214247
LeftHand -0.772310 -0.000000 3.843279
LeftHandThumb1 -26.253704 33.147579 0.000000
RightShoulder -2.655234 20.112537 -13.610854
RightArm 4.006411 39.087188 20.784684
RightForeArm -0.000000 -51.843497 11.317953
RightHand -3.093588 -0.000000 1.802197
RightHandThumb1 -24.326973 -32.862282 -0.000000
LeftUpLeg 2.875437 9.548416 1.529661
LeftLeg -0.879852 -0.000000 0.000000
LeftFoot -24.521386 18.326714 -16.111216
LeftToeBase 25.352873 -0.000000 -0.000000
RightUpLeg 2.048818 -10.959877 -4.112620
RightLeg -2.709282 -0.000000 0.000000
RightFoot -22.394976 -23.903608 12.695384
RightToeBase 27.081065 -0.000000 -0.000000
1619
root 5.571806 35.544901 -9.181198 4.933958 -1.840183 1.279539
Spine -9.320673 -13.838913 -2.537593
Head 3.471143 11.078802 15.908585
LeftShoulder -32.866416 1.296645 14.921804
LeftArm 19.112494 -44.305115 -19.537320
LeftForeArm -0.000000 25.208221 -4.248309
LeftHand -0.870673 -0.000000 4.032689
LeftHandThumb1 -26.253704 33.147579 0.000000
RightShoulder -2.645892 20.184617 -13.640296
RightArm 4.067850 39.115865 20.808765
RightForeArm -0.000000 -51.914705 11.290324
RightHand -3.028614 -0.000000 1.786072
RightHandThumb1 -24.326973 -32.862282 -0.000000
LeftUpLeg 2.900999 9.567814 1.558837
LeftLeg -0.948698 -0.000000 0.000000
LeftFoot -24.486963 18.348031 -16.101671
LeftToeBase 25.305278 -0.000000 -0.000000
RightUpLeg 2.044979 -10.837125 -4.071803
RightLeg -2.752000 -0.000000 0.000000
RightFoot -22.375355 -24.034470 12.658177
RightToeBase 27.075896 -0.000000 -0.000000
1620
root 5.562240 35.544462 -9.183986 4.948572 -1.863189 1.269084
Spine -9.297197 -13.860374 -2.487264
Head 3.453643 11.197468 15.906460
LeftShoulder -32.903536 1.272535 14.924993
LeftArm 19.059010 -44.280440 -19.505719
LeftForeArm -0.000000 25.181402 -4.271030
LeftHand -0.936379 -0.000000 3.985165
LeftHandThumb1 -26.253704 33.147579 0.000000
RightShoulder -2.635706 20.246213 -13.657668
RightArm 4.189870 39.063821 20.865496
RightForeArm -0.000000 -51.793402 11.249586
RightHand -3.148527 -0.000000 1.788365
RightHandThumb1 -24.326973 -32.862282 -0.000000
LeftUpLeg 2.922626 9.581878 1.579453
LeftLeg -1.020130 -0.000000 0.000000
LeftFoot -24.458388 18.363268 -16.120753
LeftToeBase 25.336305 -0.000000 -0.000000
RightUpLeg 2.047529 -10.720862 -4.035014
RightLeg -2.806518 -0.000000 0.000000
RightFoot -22.365051 -24.153819 12.641925
RightToeBase 27.084598 -0.000000 -0.000000
1621
root 5.552655 35.543850 -9.187064 4.966991 -1.873807 1.260070
Spine -9.286356 -13.870875 -2.440818
Head 3.450975 11.274316 15.903813
LeftShoulder -32.906663 1.265806 14.914871
LeftArm 19.009360 -44.300619 -19.470865
LeftForeArm -0.000000 25.257724 -4.298507
LeftHand -0.899178 0.000000 3.885165
LeftHandThumb1 -26.253704 33.147579 0.000000
RightShoulder -2.621207 20.293627 -13.676443
RightArm 4.256012 39.070609 20.894704
RightForeArm 0.000000 -51.788256 11.255304
RightHand -3.158661 0.000000 1.903623
RightHandThumb1 -24.326973 -32.862282 -0.000000
LeftUpLeg 2.925713 9.590132 1.598438
LeftLeg -1.068702 -0.000000 0.000000
LeftFoot -24.440270 18.377100 -16.144121
LeftToeBase 25.332948 -0.000000 -0.000000
RightUpLeg 2.056360 -10.625115 -4.000020
RightLeg -2.875909 -0.000000 0.000000
RightFoot -22.349259 -24.276755 12.606089
RightToeBase 27.092019 -0.000000 -0.000000
1622
root 5.542527 35.543591 -9.191088 4.992101 -1.889912 1.243931
Spine -9.277879 -13.896929 -2.382964
Head 3.443888 11.372106 15.904083
LeftShoulder -32.928911 1.244800 14.911293
LeftArm 18.942418 -44.314806 -19.428858
LeftForeArm -0.000000 25.268023 -4.325894
LeftHand -0.883026 -0.000000 3.862360
LeftHandThumb1 -26.253704 33.147579 0.000000
RightShoulder -2.591281 20.349850 -13.690719
RightArm 4.312902 39.053476 20.916757
RightForeArm 0.000000 -51.838989 11.225808
RightHand -3.029844 0.000000 1.969349
RightHandThumb1 -24.326973 -32.862282 -0.000000
LeftUpLeg 2.911802 9.592780 1.622152
LeftLeg -1.096753 -0.000000 0.000000
LeftFoot -24.436802 18.401935 -16.151790
LeftToeBase 25.360714 -0.000000 -0.000000
RightUpLeg 2.063003 -10.528734 -3.956519
RightLeg -2.956687 -0.000000 0.000000
RightFoot -22.312605 -24.375277 12.609299
RightToeBase 27.039583 -0.000000 -0.000000
1623
root 5.534308 35.543314 -9.195296 5.036206 -1.880625 1.238078
Spine -9.294295 -13.917957 -2.327619
Head 3.428859 11.399373 15.886382
LeftShoulder -32.914985 1.219517 14.907192
LeftArm 18.869457 -44.315209 -19.385187
LeftForeArm -0.000000 25.299815 -4.334000
LeftHand -0.828513 0.000000 3.636877
LeftHandThumb1 -26.253704 33.147579 0.000000
RightShoulder -2.599379 20.386651 -13.722061
RightArm 4.398246 39.002515 20.968930
RightForeArm -0.000000 -51.778611 11.197973
RightHand -3.058088 -0.000000 1.995094
RightHandThumb1 -24.326973 -32.862282 -0.000000
LeftUpLeg 2.866336 9.575856 1.631968
LeftLeg -1.108903 -0.000000 0.000000
LeftFoot -24.438219 18.419899 -16.174197
LeftToeBase 25.378287 -0.000000 -0.000000
RightUpLeg 2.061576 -10.481456 -3.926275
RightLeg -3.049468 -0.000000 0.000000
RightFoot -22.269277 -24.439004 12.589915
RightToeBase 27.039471 -0.000000 -0.000000
1624
root 5.527424 35.542946 -9.199031 5.084139 -1.865363 1.237406
Spine -9.315772 -13.962327 -2.265869
Head 3.413234 11.415647 15.855425
LeftShoulder -32.930585 1.194267 14.903483
LeftArm 18.811317 -44.360238 -19.373815
LeftForeArm -0.000000 25.378267 -4.320888
LeftHand -0.906340 0.000000 3.614042
LeftHandThumb1 -26.253704 33.147579 0.000000
RightShoulder -2.592408 20.429213 -13.747735
RightArm 4.498011 38.988235 21.012060
RightForeArm -0.000000 -51.791881 11.148074
RightHand -3.030792 0.000000 2.062083
RightHandThumb1 -24.326973 -32.862282 -0.000000
LeftUpLeg 2.815669 9.562947 1.635095
LeftLeg -1.121854 -0.000000 0.000000
LeftFoot -24.431558 18.433592 -16.179562
LeftToeBase 25.379212 -0.000000 -0.000000
RightUpLeg 2.056139 -10.507627 -3.902585
RightLeg -3.141349 -0.000000 0.000000
RightFoot -22.219254 -24.444806 12.555347
RightToeBase 27.041071 -0.000000 -0.000000
1625
root 5.520155 35.543403 -9.204221 5.162726 -1.834861 1.234183
Spine -9.375481 -14.031060 -2.195972
Head 3.417327 11.479318 15.852973
LeftShoulder -32.948680 1.171554 14.910783
LeftArm 18.742418 -44.385281 -19.361206
LeftForeArm -0.000000 25.399276 -4.303980
LeftHand -1.010497 -0.000000 3.726030
LeftHandThumb1 -26.253704 33.147579 0.000000
RightShoulder -2.578392 20.457459 -13.761714
RightArm 4.604719 38.959886 21.066529
RightForeArm -0.000000 -51.837080 11.091279
RightHand -2.987450 0.000000 2.092276
RightHandThumb1 -24.326973 -32.862282 -0.000000
LeftUpLeg 2.720736 9.555346 1.636857
LeftLeg -1.118843 -0.000000 0.000000
LeftFoot -24.418769 18.428792 -16.182039
LeftToeBase 25.368555 -0.000000 -0.000000
RightUpLeg 2.028975 -10.517006 -3.869542
RightLeg -3.248336 -0.000000 0.000000
RightFoot -22.166137 -24.483035 12.547197
RightToeBase 27.014665 -0.000000 -0.000000
1626
root 5.513988 35.544089 -9.208178 5.246391 -1.808055 1.240873
Spine -9.443736 -14.077627 -2.141636
Head 3.410074 11.520418 15.852771
LeftShoulder -32.963027 1.143124 14.918818
LeftArm 18.696425 -44.386351 -19.354715
LeftForeArm -0.000000 25.345717 -4.291879
LeftHand -1.037667 -0.000000 3.754374
LeftHandThumb1 -26.253704 33.147579 0.000000
RightShoulder -2.573279 20.480337 -13.774185
RightArm 4.666532 38.884979 21.082914
RightForeArm -0.000000 -51.839949 11.056960
RightHand -2.942422 0.000000 2.148853
RightHandThumb1 -24.326973 -32.862282 -0.000000
LeftUpLeg 2.621587 9.543724 1.627835
LeftLeg -1.110923 -0.000000 0.000000
LeftFoot -24.409155 18.406091 -16.216780
LeftToeBase 25.353055 -0.000000 -0.000000
RightUpLeg 1.999837 -10.549521 -3.849075
RightLeg -3.358614 -0.000000 0.000000
RightFoot -22.103522 -24.481705 12.532563
RightToeBase 27.012740 -0.000000 -0.000000
